# xmcd
#
# Track frame offsets:
#	150
#	12458
#	26394
#	38665
#	49463
#	61515
#	75735
#	87953
#	102916
#	113104
#	117934
#	130779
#	144929
#	158805
#	164250
#	178542
#	187467
#
# Disc length: 2667 seconds
#
# Revision: 1
# Processed by: cddbd v1.5.2PL0 Copyright (c) Steve Scherf et al.
# Submitted via: audiograbber 1.83.01
#
DISCID=da0a6911
DTITLE=Dolly Parton - Country Girl
DYEAR=1979
DGENRE=Country
TTITLE0=Jolene
TTITLE1=My Tennessee Mountain Home
TTITLE2=The Bargain Store
TTITLE3=Love Is Like a Butterfly
TTITLE4=Just The Two Of Us
TTITLE5=I Will Always Love You (1982)
TTITLE6=Touch Your Woman
TTITLE7=The Seeker
TTITLE8=Travelling Man
TTITLE9=Daddy Come And Get Me
TTITLE10=My Blue Tears
TTITLE11=Coat Of Many Colors
TTITLE12=Joshua
TTITLE13=Washday Blues
TTITLE14=Mule Skinner Blues
TTITLE15=Afraid To Love Again
TTITLE16=I Washed My Face In The Morning Dew
EXTD=
EXTT0=
EXTT1=
EXTT2=
EXTT3=
EXTT4=
EXTT5=
EXTT6=
EXTT7=
EXTT8=
EXTT9=
EXTT10=
EXTT11=
EXTT12=
EXTT13=
EXTT14=
EXTT15=
EXTT16=
PLAYORDER=
